<?xml version="1.0" standalone="no"?>
<!DOCTYPE svg PUBLIC "-//W3C//DTD SVG 20010904//EN"
 "http://www.w3.org/TR/2001/REC-SVG-20010904/DTD/svg10.dtd">
<svg version="1.0" xmlns="http://www.w3.org/2000/svg"
 width="502.000000pt" height="497.000000pt" viewBox="0 0 502.000000 497.000000"
 preserveAspectRatio="xMidYMid meet">

<g transform="translate(0.000000,497.000000) scale(0.100000,-0.100000)"
fill="#000000" stroke="none">
<path d="M3525 3938 c-148 -187 -358 -452 -466 -587 -525 -661 -627 -790 -664
-838 -22 -29 -45 -51 -51 -50 -7 1 -108 124 -225 272 -477 602 -593 745 -606
745 -10 0 -13 -202 -15 -1090 -2 -600 0 -1089 3 -1088 7 3 353 440 377 476 13
19 14 63 7 316 -4 178 -3 296 2 299 5 4 30 -20 54 -52 126 -167 185 -240 194
-240 6 0 23 18 40 42 27 38 200 257 385 487 38 47 196 245 351 440 607 764
698 878 816 1024 112 140 120 152 105 169 -8 9 -20 17 -26 16 -6 0 -132 -153
-281 -341z"/>
<path d="M3469 3513 c-1 -5 -1 -11 0 -15 0 -5 -3 -7 -8 -5 -4 1 -55 -56 -111
-128 -57 -71 -196 -246 -309 -389 -225 -283 -519 -653 -877 -1101 -127 -160
-374 -470 -549 -690 -457 -574 -469 -589 -480 -597 -6 -4 0 -16 14 -29 28 -26
4 -49 212 211 574 722 813 1023 859 1083 25 31 49 57 55 56 8 0 98 -110 196
-240 15 -20 21 -14 205 217 104 132 238 301 298 377 60 76 110 136 113 134 2
-2 3 -255 3 -561 l0 -556 195 0 195 0 0 1120 c0 948 -2 1169 -11 1113z"/>
<path d="M1495 3500 c3 -5 11 -10 16 -10 6 0 7 5 4 10 -3 6 -11 10 -16 10 -6
0 -7 -4 -4 -10z"/>
</g>
</svg>
