<svg xmlns="http://www.w3.org/2000/svg" aria-hidden="true" style="position:absolute;width:0;height:0;overflow:hidden"><defs>

<symbol id="icon-facebook" viewBox="0 0 32 32"><path d="M19.36 1.708a7.577 7.577 0 0 0-4.768 2.217l-.001.001a7.646 7.646 0 0 0-2.076 3.784l-.009.051c-.133.647-.184 1.504-.185 3.103l-.001 1.449-1.667.017c-1.553.016-1.679.024-1.848.124a.873.873 0 0 0-.435.616l-.001.005c-.059.303-.059 5.548 0 5.851.055.28.193.479.436.621.169.1.295.108 1.848.124l1.667.017.003 4.836c.001 2.66.023 4.94.047 5.068.055.28.193.479.436.621.176.103.277.107 3.195.107s3.019-.004 3.195-.107a.873.873 0 0 0 .435-.616l.001-.005c.024-.128.045-2.408.047-5.068l.003-4.837 1.64-.016c1.871-.02 1.939-.033 2.169-.437.191-.337 1.547-5.84 1.508-6.125-.037-.279-.173-.46-.469-.628l-.235-.133-4.613-.032v-1.563c0-1.424.008-1.569.093-1.647.083-.075.375-.088 2.333-.103 2.128-.015 2.249-.021 2.421-.123a.873.873 0 0 0 .435-.616l.001-.005c.059-.303.059-5.548 0-5.851a.873.873 0 0 0-.432-.619l-.004-.002c-.173-.101-.284-.107-2.421-.113-1.232-.004-2.468.011-2.747.035zm3.627 3.625v1.653l-1.48.001c-1.667.001-2.099.044-2.52.252-.376.187-.893.704-1.08 1.08-.228.459-.263.916-.244 3.253.016 1.995.023 2.116.124 2.288a.873.873 0 0 0 .616.435l.005.001c.128.024 1.152.045 2.277.047 1.613.003 2.041.017 2.021.069-.013.037-.2.779-.416 1.649l-.393 1.583-1.789.017c-1.675.016-1.8.024-1.969.124a.873.873 0 0 0-.435.616l-.001.005c-.024.128-.045 2.411-.047 5.072l-.003 4.84h-3.307l-.003-4.84c-.001-2.661-.023-4.944-.047-5.072a.873.873 0 0 0-.432-.619l-.004-.002c-.169-.1-.295-.108-1.848-.124l-1.667-.017v-3.291l1.667-.017c1.553-.016 1.679-.024 1.848-.124a.873.873 0 0 0 .435-.616l.001-.005c.024-.128.045-1.268.047-2.533.003-2.745.031-2.968.495-4.045.508-1.181 1.672-2.344 2.841-2.839.612-.26.681-.283 1.177-.387.411-.087.729-.101 2.303-.104l1.827-.004v1.653z"/></symbol>
<symbol id="icon-close" viewBox="0 0 32 32">
<path fill="none" stroke="" style="" stroke-linejoin="round" stroke-linecap="round" stroke-miterlimit="4" stroke-width="2.2857" d="M24 8l-16 16M8 8l16 16"></path>
</symbol>
<symbol id="icon-instagram" viewBox="0 0 32 32"><path d="M8.693 1.709a7.56 7.56 0 0 0-4.767 2.215l-.001.001C2.598 5.25 1.854 6.884 1.704 8.8c-.063.8-.063 13.6 0 14.4.151 1.917.896 3.553 2.223 4.875 1.335 1.332 2.956 2.071 4.873 2.221.8.063 13.6.063 14.4 0 1.919-.151 3.543-.891 4.873-2.223 1.332-1.331 2.072-2.955 2.223-4.873.063-.8.063-13.6 0-14.4-.151-1.919-.891-3.543-2.223-4.873-1.331-1.332-2.955-2.072-4.873-2.223-.733-.057-13.78-.053-14.507.005zm14.991 2.055c2.333.443 4.107 2.223 4.556 4.575.12.627.12 14.696 0 15.323a5.697 5.697 0 0 1-4.544 4.573l-.035.005c-.627.12-14.696.12-15.323 0-2.095-.4-3.729-1.836-4.409-3.871-.252-.753-.249-.668-.249-8.369s-.003-7.616.249-8.369c.516-1.547 1.697-2.869 3.084-3.456.612-.26.681-.283 1.177-.387.452-.096.844-.101 7.764-.104 6.413-.004 7.34.007 7.729.08zm-.895 4.027c-.605.3-.603 1.459.004 1.753.316.152.788.148 1.099-.011.317-.163.428-.387.428-.867s-.111-.704-.428-.867a1.335 1.335 0 0 0-1.111-.006l.009-.003zm-7.456 1.917a6.494 6.494 0 0 0-3.858 1.943l-.002.002c-1.124 1.184-1.713 2.679-1.713 4.349 0 3.713 3.1 6.575 6.813 6.287a6.32 6.32 0 0 0 5.681-4.976l.007-.041c.48-2.325-.455-4.869-2.295-6.249-.845-.635-1.715-1.039-2.651-1.232-.504-.104-1.495-.145-1.983-.083zm1.734 2.063c.84.195 1.844.835 2.38 1.515.375.473.521.744.709 1.308.146.417.23.898.23 1.399 0 .92-.285 1.773-.771 2.476l.009-.015a5.854 5.854 0 0 1-.951.997l-.01.008c-.768.593-1.792.901-2.817.845-.692-.039-1.063-.135-1.687-.436-1.576-.764-2.512-2.385-2.413-4.179.084-1.513 1.112-3.001 2.516-3.637a4.55 4.55 0 0 1 2.835-.275l-.03-.006z"/></symbol>

<symbol id="icon-burger" viewBox="0 0 32 32"><path d="M3.498 6.936c-.218.065-.503.358-.566.582a2.345 2.345 0 0 0 .003.98l-.003-.016c.066.235.349.515.591.585.25.072 24.699.072 24.959 0 .235-.066.515-.349.585-.591a2.282 2.282 0 0 0-.002-.969l.003.015c-.07-.242-.35-.525-.585-.591-.239-.066-24.762-.064-24.984.003zm0 8c-.218.065-.503.358-.566.582a2.345 2.345 0 0 0 .003.98l-.003-.016c.066.235.349.515.591.585.25.072 24.699.072 24.959 0 .235-.066.515-.349.585-.591a2.282 2.282 0 0 0-.002-.969l.003.015c-.07-.242-.35-.525-.585-.591-.239-.066-24.762-.064-24.984.003zm0 8c-.218.065-.503.358-.566.582a2.345 2.345 0 0 0 .003.98l-.003-.016c.066.235.349.515.591.585.25.072 16.701.071 16.959 0 .235-.066.515-.349.585-.591a2.282 2.282 0 0 0-.002-.969l.003.015c-.07-.242-.35-.525-.585-.591-.238-.065-16.762-.063-16.984.003z"/></symbol>

<symbol id="icon-twitter" viewBox="0 0 32 32"><path d="M20.824 3.089c-2.279.401-4.069 1.74-5.108 3.817-.431.861-.633 1.672-.704 2.813l-.039.627h-.221c-.717 0-2.2-.292-3.235-.636-2.652-.884-4.843-2.46-6.491-4.671a5.63 5.63 0 0 0-.448-.543l.003.003c-.171-.152-.483-.247-.669-.203-.236.055-.587.273-.705.44-.24.337-.671 1.636-.939 2.836-.543 2.423-.577 4.741-.101 6.88.721 3.244 2.645 5.883 5.724 7.853.309.197.585.367.612.376.117.04-.061.148-.675.412-.812.348-1.539.596-2.335.796-1.259.316-2.091.421-3.555.451-1.155.023-1.252.049-1.46.42-.147.261-.163.785-.032 1.039.123.239.328.376 1.233.829 2.392 1.196 4.491 1.832 7.093 2.151.907.111 3.265.129 4.187.032 5.949-.629 10.941-3.917 13.7-9.024 1.523-2.819 2.289-5.968 2.309-9.488l.007-1.1.229-.256a12.004 12.004 0 0 0 1.523-2.238l.032-.066c.475-.945.956-2.472.904-2.864-.049-.371-.3-.617-.751-.74-.331-.091-.571-.015-1.163.371-.691.449-1.4.832-2.132 1.148-.84.363-.825.363-1.227.023-1.477-1.252-3.633-1.828-5.568-1.488zm1.612 1.928c1.26.14 2.253.62 3.124 1.509.379.387.592.513.864.513.221 0 1.012-.245 1.717-.533.273-.112.499-.188.497-.169-.003.1-.628.935-1.091 1.456-.621.7-.689.853-.616 1.367.121.832.033 2.784-.185 4.147-.856 5.324-3.791 9.535-8.223 11.8-.912.465-1.572.744-2.353.996-3.327 1.068-6.964 1.075-10.437.017l-.373-.115.267-.072c1.019-.275 1.627-.457 2.085-.627.765-.281 2.464-1.132 3.119-1.56.669-.44.809-.624.839-1.105.032-.52-.052-.603-1.191-1.176-1.668-.84-2.5-1.425-3.629-2.555-.888-.888-1.388-1.565-1.896-2.571a10.346 10.346 0 0 1-1.06-3.599l-.004-.046c-.092-.809-.036-2.727.104-3.548.133-.784.324-1.637.38-1.697.023-.025.121.056.22.179.265.329 1.215 1.175 1.889 1.683a15.96 15.96 0 0 0 4.291 2.272c1.52.517 3.529.831 5.016.783.52-.016.64-.037.805-.14.351-.217.381-.352.423-1.852.031-1.135.053-1.392.151-1.724.58-1.98 2.197-3.368 4.233-3.632.477-.063.473-.063 1.035 0z"/></symbol>
<symbol id="icon-arrow" viewBox="0 0 32 32"><path d="M8.29.068c-.446.218-1 .774-1.24 1.244-.042.078-.05.196-.05.682 0 .574.002.592.078.744.044.086.128.224.186.306.058.084 2.986 3.034 6.506 6.556l6.4 6.406-6.318 6.314a727.405 727.405 0 0 0-6.389 6.427l-.107.109c-.098.122-.218.3-.268.398L7 29.428v.588c0 .658-.008.624.244.992.186.27.546.62.834.81l.222.146.678.01.676.008.188-.114c.104-.062.286-.196.406-.3.418-.358 14.348-14.326 14.49-14.528.264-.38.262-.374.262-1.034 0-.666-.002-.676-.284-1.066C24.528 14.682 10.318.472 10.06.284 9.67.002 9.66 0 9.004 0c-.536.002-.59.006-.714.068z"/></symbol>
<symbol id="icon-button-prev" viewBox="0 0 32 32">
<path stroke-linejoin="round" stroke-linecap="round" stroke-miterlimit="4" stroke-width="2.4" d="M19.554 22.223l-6.222-6.222 6.222-6.222"></path>
</symbol>
<symbol id="icon-button-next" viewBox="0 0 32 32">
<path fill="none" stroke="#f7f7f7" stroke-linejoin="round" stroke-linecap="round" stroke-miterlimit="4" stroke-width="2.4" d="M12.442 22.224l6.222-6.222-6.222-6.222"></path>
</symbol>

</defs></svg>